# xmcd
#
# Track frame offsets:
# 150
# 26025
# 52631
# 74285
# 94768
# 117334
# 138228
# 160996
#
# Disc length: 2491 seconds
#
#
# Revision: 0
# Processed by: cddbd v1.5.2PL0 Copyright (c) Steve Scherf et al.
# Submitted via: FreeRIP 2.945 
#
DISCID=6309b908
DTITLE=Teddy Pendergrass - Teddy
DYEAR=1900
DGENRE=Soul
TTITLE0=Come Go With Me
TTITLE1=Turn Off The Lights
TTITLE2=I'll Never See Heaven Again
TTITLE3=All I Need Is You
TTITLE4=If You Know Like I Know
TTITLE5=Do Me
TTITLE6=Set Me Free
TTITLE7=Life Is A Circle
EXTD=
EXTT0=
EXTT1=
EXTT2=
EXTT3=
EXTT4=
EXTT5=
EXTT6=
EXTT7=
PLAYORDER=
